<?xml version="1.0" encoding="UTF-8" standalone="no"?><!DOCTYPE svg PUBLIC "-//W3C//DTD SVG 1.1//EN" "http://www.w3.org/Graphics/SVG/1.1/DTD/svg11.dtd"><svg width="100%" height="100%" viewBox="0 0 512 512" version="1.1" xmlns="http://www.w3.org/2000/svg" xmlns:xlink="http://www.w3.org/1999/xlink" xml:space="preserve" xmlns:serif="http://www.serif.com/" style="fill-rule:evenodd;clip-rule:evenodd;stroke-linejoin:round;stroke-miterlimit:1.41421;"><rect id="Artboard1" x="0" y="0" width="512" height="512" style="fill:none;"/><clipPath id="_clip1"><rect id="Artboard11" serif:id="Artboard1" x="0" y="0" width="512" height="512"/></clipPath><g clip-path="url(#_clip1)"><g><g><path d="M190.935,204.84c0,46.791 -37.931,84.722 -84.722,84.722c-46.79,0 -84.722,-37.931 -84.722,-84.722c0,-46.79 37.932,-84.722 84.722,-84.722c46.791,0 84.722,37.932 84.722,84.722" style="fill:#9bcc52;fill-rule:nonzero;"/><path d="M339.994,204.84c0,46.791 -37.931,84.722 -84.722,84.722c-46.79,0 -84.722,-37.931 -84.722,-84.722c0,-46.79 37.932,-84.722 84.722,-84.722c46.791,0 84.722,37.932 84.722,84.722" style="fill:#75b354;fill-rule:nonzero;"/><path d="M180.743,245.158c6.499,-11.989 10.191,-25.722 10.191,-40.318c0,-14.596 -3.692,-28.329 -10.191,-40.318c-6.498,11.989 -10.191,25.722 -10.191,40.318c0,14.596 3.693,28.329 10.191,40.318" style="fill:#5aaa4c;fill-rule:nonzero;"/><path d="M489.053,204.84c0,46.791 -37.932,84.722 -84.722,84.722c-46.791,0 -84.722,-37.931 -84.722,-84.722c0,-46.79 37.931,-84.722 84.722,-84.722c46.79,0 84.722,37.932 84.722,84.722" style="fill:#46a653;fill-rule:nonzero;"/><path d="M329.802,245.158c6.499,-11.989 10.191,-25.722 10.191,-40.318c0,-14.596 -3.692,-28.329 -10.191,-40.318c-6.498,11.989 -10.191,25.722 -10.191,40.318c0,14.596 3.693,28.329 10.191,40.318" style="fill:#409c50;fill-rule:nonzero;"/></g><path d="M127.726,242.799l0,-50.068l-21.584,32.757l-0.438,0l-21.364,-32.429l0,49.74l-16.545,0l0,-76.694l18.188,0l20.159,32.431l20.161,-32.431l18.188,0l0,76.694l-16.765,0Z" style="fill:#fff;fill-rule:nonzero;"/><path d="M275.432,204.453c0,-13.586 -9.314,-23.12 -23.118,-23.12l-13.038,0l0,46.239l13.038,0c13.804,0 23.118,-9.313 23.118,-22.901l0,-0.218Zm-23.118,38.345l-29.911,0l0,-76.692l29.911,0c24.103,0 40.758,16.545 40.758,38.127l0,0.22c0,21.584 -16.655,38.345 -40.758,38.345" style="fill:#fff;fill-rule:nonzero;"/><path d="M404.293,185.828l-10.189,24.871l20.378,0l-10.189,-24.871Zm23.228,56.971l-7.011,-17.201l-32.434,0l-7.011,17.201l-17.2,0l32.869,-77.24l15.556,0l32.871,77.24l-17.64,0Z" style="fill:#fff;fill-rule:nonzero;"/><g><path d="M48.674,328.313c1.637,0 2.929,-0.409 3.876,-1.228c0.947,-0.818 1.42,-1.87 1.42,-3.156l0,-0.071c0,-1.449 -0.479,-2.543 -1.438,-3.279c-0.959,-0.737 -2.245,-1.105 -3.858,-1.105l-5.016,0l0,8.839l5.016,0Zm-9.33,-12.768l9.681,0c1.426,0 2.718,0.193 3.875,0.579c1.158,0.386 2.14,0.941 2.947,1.666c0.807,0.725 1.426,1.59 1.859,2.596c0.432,1.005 0.649,2.128 0.649,3.367l0,0.07c0,1.38 -0.257,2.59 -0.772,3.631c-0.514,1.04 -1.216,1.911 -2.104,2.613c-0.889,0.701 -1.93,1.233 -3.122,1.596c-1.193,0.362 -2.467,0.544 -3.824,0.544l-4.875,0l0,7.892l-4.314,0l0,-24.554Z" style="fill:#fff;fill-rule:nonzero;"/><path d="M75.156,327.717c1.544,0 2.771,-0.368 3.683,-1.105c0.912,-0.737 1.368,-1.736 1.368,-2.999l0,-0.07c0,-1.333 -0.444,-2.344 -1.333,-3.034c-0.888,-0.69 -2.139,-1.035 -3.753,-1.035l-6.279,0l0,8.243l6.314,0Zm-10.628,-12.172l10.944,0c1.543,0 2.911,0.217 4.104,0.649c1.192,0.433 2.186,1.035 2.981,1.807c0.655,0.678 1.158,1.461 1.508,2.35c0.351,0.888 0.527,1.871 0.527,2.946l0,0.07c0,1.006 -0.147,1.912 -0.439,2.719c-0.292,0.807 -0.695,1.52 -1.21,2.139c-0.514,0.62 -1.128,1.146 -1.841,1.579c-0.714,0.432 -1.503,0.766 -2.368,1l6.629,9.295l-5.086,0l-6.033,-8.559l-0.07,0l-5.332,0l0,8.559l-4.314,0l0,-24.554Z" style="fill:#fff;fill-rule:nonzero;"/><path d="M103.427,336.556c1.216,0 2.333,-0.228 3.35,-0.684c1.017,-0.456 1.888,-1.076 2.613,-1.859c0.725,-0.783 1.292,-1.701 1.702,-2.754c0.409,-1.052 0.613,-2.174 0.613,-3.367l0,-0.07c0,-1.193 -0.204,-2.321 -0.613,-3.385c-0.41,-1.064 -0.983,-1.987 -1.719,-2.771c-0.737,-0.783 -1.62,-1.409 -2.648,-1.876c-1.029,-0.468 -2.152,-0.702 -3.368,-0.702c-1.216,0 -2.332,0.228 -3.349,0.684c-1.018,0.456 -1.889,1.076 -2.614,1.859c-0.725,0.783 -1.292,1.701 -1.701,2.754c-0.409,1.052 -0.614,2.174 -0.614,3.367l0,0.07c0,1.193 0.205,2.321 0.614,3.385c0.409,1.064 0.982,1.988 1.719,2.771c0.737,0.783 1.619,1.409 2.648,1.876c1.029,0.468 2.151,0.702 3.367,0.702Zm-0.07,3.964c-1.894,0 -3.624,-0.334 -5.191,-1c-1.567,-0.667 -2.911,-1.573 -4.034,-2.718c-1.122,-1.146 -1.999,-2.485 -2.63,-4.017c-0.632,-1.531 -0.947,-3.162 -0.947,-4.893l0,-0.07c0,-1.73 0.315,-3.361 0.947,-4.893c0.631,-1.532 1.52,-2.876 2.665,-4.034c1.146,-1.157 2.502,-2.075 4.069,-2.753c1.567,-0.678 3.297,-1.017 5.191,-1.017c1.895,0 3.625,0.333 5.192,0.999c1.566,0.667 2.911,1.573 4.033,2.719c1.123,1.145 2,2.484 2.631,4.016c0.632,1.531 0.947,3.162 0.947,4.893l0,0.07c0,1.73 -0.315,3.361 -0.947,4.893c-0.631,1.532 -1.52,2.876 -2.666,4.034c-1.145,1.157 -2.502,2.075 -4.068,2.753c-1.567,0.678 -3.298,1.018 -5.192,1.018Z" style="fill:#fff;fill-rule:nonzero;"/><path d="M132.541,328.313c1.636,0 2.928,-0.409 3.875,-1.228c0.947,-0.818 1.421,-1.87 1.421,-3.156l0,-0.071c0,-1.449 -0.479,-2.543 -1.438,-3.279c-0.959,-0.737 -2.245,-1.105 -3.858,-1.105l-5.016,0l0,8.839l5.016,0Zm-9.331,-12.768l9.681,0c1.427,0 2.719,0.193 3.876,0.579c1.158,0.386 2.14,0.941 2.947,1.666c0.806,0.725 1.426,1.59 1.859,2.596c0.432,1.005 0.649,2.128 0.649,3.367l0,0.07c0,1.38 -0.258,2.59 -0.772,3.631c-0.515,1.04 -1.216,1.911 -2.105,2.613c-0.888,0.701 -1.929,1.233 -3.121,1.596c-1.193,0.362 -2.467,0.544 -3.824,0.544l-4.875,0l0,7.892l-4.315,0l0,-24.554Z" style="fill:#fff;fill-rule:nonzero;"/><path d="M148.395,315.545l18.204,0l0,3.859l-13.89,0l0,6.384l12.312,0l0,3.858l-12.312,0l0,6.594l14.066,0l0,3.859l-18.38,0l0,-24.554Z" style="fill:#fff;fill-rule:nonzero;"/><path d="M184.278,327.717c1.543,0 2.771,-0.368 3.683,-1.105c0.912,-0.737 1.368,-1.736 1.368,-2.999l0,-0.07c0,-1.333 -0.445,-2.344 -1.333,-3.034c-0.889,-0.69 -2.14,-1.035 -3.753,-1.035l-6.279,0l0,8.243l6.314,0Zm-10.628,-12.172l10.943,0c1.544,0 2.912,0.217 4.104,0.649c1.193,0.433 2.187,1.035 2.982,1.807c0.654,0.678 1.157,1.461 1.508,2.35c0.351,0.888 0.526,1.871 0.526,2.946l0,0.07c0,1.006 -0.146,1.912 -0.438,2.719c-0.293,0.807 -0.696,1.52 -1.21,2.139c-0.515,0.62 -1.129,1.146 -1.842,1.579c-0.713,0.432 -1.502,0.766 -2.368,1l6.63,9.295l-5.086,0l-6.033,-8.559l-0.07,0l-5.332,0l0,8.559l-4.314,0l0,-24.554Z" style="fill:#fff;fill-rule:nonzero;"/><path d="M206.796,319.544l-7.786,0l0,-3.999l19.923,0l0,3.999l-7.787,0l0,20.555l-4.35,0l0,-20.555Z" style="fill:#fff;fill-rule:nonzero;"/><path d="M232.472,330.418l-9.751,-14.873l5.086,0l6.875,10.874l6.945,-10.874l4.946,0l-9.751,14.767l0,9.787l-4.35,0l0,-9.681Z" style="fill:#fff;fill-rule:nonzero;"/><path d="M264.391,315.545l4.595,0l7.471,11.611l7.472,-11.611l4.595,0l0,24.554l-4.315,0l0,-17.609l-7.752,11.576l-0.14,0l-7.682,-11.505l0,17.538l-4.244,0l0,-24.554Z" style="fill:#fff;fill-rule:nonzero;"/><path d="M311.463,330.348l-4.244,-9.822l-4.209,9.822l8.453,0Zm-6.173,-14.978l3.999,0l10.803,24.729l-4.56,0l-2.49,-5.928l-11.61,0l-2.526,5.928l-4.42,0l10.804,-24.729Z" style="fill:#fff;fill-rule:nonzero;"/><path d="M326.055,315.545l3.999,0l13.153,16.977l0,-16.977l4.244,0l0,24.554l-3.613,0l-13.539,-17.468l0,17.468l-4.244,0l0,-24.554Z" style="fill:#fff;fill-rule:nonzero;"/><path d="M370.391,330.348l-4.244,-9.822l-4.209,9.822l8.453,0Zm-6.173,-14.978l3.998,0l10.804,24.729l-4.56,0l-2.491,-5.928l-11.61,0l-2.525,5.928l-4.42,0l10.804,-24.729Z" style="fill:#fff;fill-rule:nonzero;"/><path d="M396.628,340.52c-1.918,0 -3.66,-0.322 -5.226,-0.965c-1.567,-0.643 -2.906,-1.532 -4.017,-2.666c-1.11,-1.134 -1.97,-2.467 -2.578,-3.998c-0.608,-1.532 -0.912,-3.198 -0.912,-4.999l0,-0.07c0,-1.707 0.31,-3.332 0.93,-4.876c0.619,-1.543 1.491,-2.893 2.613,-4.051c1.122,-1.157 2.461,-2.075 4.016,-2.753c1.555,-0.678 3.256,-1.017 5.104,-1.017c1.075,0 2.052,0.076 2.929,0.228c0.876,0.152 1.689,0.368 2.437,0.648c0.749,0.281 1.456,0.626 2.122,1.035c0.667,0.409 1.316,0.883 1.947,1.421l-2.736,3.262c-0.467,-0.398 -0.947,-0.76 -1.438,-1.088c-0.491,-0.327 -1.005,-0.602 -1.543,-0.824c-0.538,-0.222 -1.129,-0.397 -1.772,-0.526c-0.643,-0.129 -1.35,-0.193 -2.122,-0.193c-1.122,0 -2.169,0.234 -3.139,0.702c-0.97,0.467 -1.812,1.093 -2.525,1.876c-0.714,0.784 -1.275,1.701 -1.684,2.754c-0.409,1.052 -0.614,2.163 -0.614,3.332l0,0.07c0,1.263 0.199,2.432 0.596,3.508c0.398,1.075 0.965,1.999 1.702,2.771c0.736,0.771 1.613,1.379 2.63,1.824c1.017,0.444 2.157,0.666 3.42,0.666c1.169,0 2.263,-0.169 3.28,-0.509c1.017,-0.339 1.9,-0.789 2.648,-1.35l0,-4.595l-6.279,0l0,-3.753l10.453,0l0,10.312c-0.608,0.515 -1.28,1.006 -2.017,1.473c-0.736,0.468 -1.531,0.877 -2.385,1.228c-0.854,0.351 -1.771,0.626 -2.753,0.824c-0.983,0.199 -2.011,0.299 -3.087,0.299Z" style="fill:#fff;fill-rule:nonzero;"/><path d="M414.236,315.545l18.204,0l0,3.859l-13.89,0l0,6.384l12.312,0l0,3.858l-12.312,0l0,6.594l14.066,0l0,3.859l-18.38,0l0,-24.554Z" style="fill:#fff;fill-rule:nonzero;"/><path d="M450.119,327.717c1.543,0 2.771,-0.368 3.683,-1.105c0.912,-0.737 1.368,-1.736 1.368,-2.999l0,-0.07c0,-1.333 -0.445,-2.344 -1.333,-3.034c-0.889,-0.69 -2.14,-1.035 -3.753,-1.035l-6.279,0l0,8.243l6.314,0Zm-10.628,-12.172l10.943,0c1.544,0 2.912,0.217 4.104,0.649c1.193,0.433 2.187,1.035 2.982,1.807c0.655,0.678 1.157,1.461 1.508,2.35c0.351,0.888 0.526,1.871 0.526,2.946l0,0.07c0,1.006 -0.146,1.912 -0.438,2.719c-0.293,0.807 -0.696,1.52 -1.21,2.139c-0.515,0.62 -1.129,1.146 -1.842,1.579c-0.713,0.432 -1.502,0.766 -2.367,1l6.629,9.295l-5.086,0l-6.033,-8.559l-0.07,0l-5.332,0l0,8.559l-4.314,0l0,-24.554Z" style="fill:#fff;fill-rule:nonzero;"/><path d="M478.145,334.522c-0.959,0 -1.854,-0.176 -2.684,-0.527c-0.83,-0.35 -1.543,-0.836 -2.139,-1.455c-0.597,-0.62 -1.064,-1.339 -1.403,-2.157c-0.34,-0.819 -0.509,-1.707 -0.509,-2.666l0,-0.07c0,-0.936 0.169,-1.818 0.509,-2.649c0.339,-0.83 0.806,-1.56 1.403,-2.192c0.596,-0.631 1.315,-1.128 2.157,-1.491c0.842,-0.362 1.754,-0.543 2.736,-0.543c1.262,0 2.291,0.193 3.086,0.579c0.795,0.385 1.509,0.882 2.14,1.49l-1.649,1.894c-0.514,-0.467 -1.064,-0.847 -1.648,-1.14c-0.585,-0.292 -1.228,-0.438 -1.929,-0.438c-0.608,0 -1.164,0.117 -1.666,0.351c-0.503,0.234 -0.936,0.555 -1.298,0.964c-0.363,0.41 -0.649,0.883 -0.86,1.421c-0.21,0.538 -0.315,1.111 -0.315,1.719l0,0.07c0,0.608 0.105,1.181 0.315,1.718c0.211,0.538 0.497,1.012 0.86,1.421c0.362,0.409 0.795,0.731 1.298,0.965c0.502,0.233 1.058,0.35 1.666,0.35c0.795,0 1.467,-0.146 2.017,-0.438c0.549,-0.292 1.093,-0.696 1.631,-1.21l1.683,1.648c-0.701,0.749 -1.461,1.333 -2.28,1.754c-0.818,0.421 -1.859,0.632 -3.121,0.632Zm-0.176,4.735c1.614,0 3.116,-0.304 4.507,-0.912c1.392,-0.608 2.596,-1.427 3.613,-2.455c1.017,-1.029 1.818,-2.239 2.403,-3.631c0.585,-1.391 0.877,-2.87 0.877,-4.437l0,-0.07c0,-1.567 -0.287,-3.04 -0.86,-4.42c-0.572,-1.379 -1.367,-2.584 -2.385,-3.613c-1.017,-1.028 -2.215,-1.841 -3.595,-2.437c-1.38,-0.597 -2.876,-0.895 -4.49,-0.895c-1.613,0 -3.116,0.304 -4.507,0.912c-1.391,0.608 -2.596,1.427 -3.613,2.456c-1.017,1.028 -1.818,2.239 -2.403,3.63c-0.584,1.391 -0.876,2.87 -0.876,4.437l0,0.07c0,1.567 0.286,3.04 0.859,4.42c0.573,1.379 1.368,2.584 2.385,3.613c1.017,1.028 2.216,1.841 3.595,2.437c1.38,0.597 2.877,0.895 4.49,0.895Zm0,1.263c-1.777,0 -3.437,-0.334 -4.981,-1c-1.543,-0.667 -2.882,-1.573 -4.016,-2.718c-1.134,-1.146 -2.028,-2.485 -2.683,-4.017c-0.655,-1.531 -0.982,-3.162 -0.982,-4.893l0,-0.07c0,-1.73 0.327,-3.361 0.982,-4.893c0.655,-1.532 1.555,-2.876 2.701,-4.034c1.145,-1.157 2.496,-2.075 4.051,-2.753c1.555,-0.678 3.221,-1.017 4.998,-1.017c1.777,0 3.438,0.333 4.981,0.999c1.543,0.667 2.882,1.573 4.016,2.719c1.134,1.145 2.029,2.484 2.684,4.016c0.654,1.531 0.982,3.162 0.982,4.893l0,0.07c0,1.73 -0.328,3.361 -0.982,4.893c-0.655,1.532 -1.555,2.876 -2.701,4.034c-1.146,1.157 -2.497,2.075 -4.052,2.753c-1.555,0.678 -3.221,1.018 -4.998,1.018Z" style="fill:#fff;fill-rule:nonzero;"/></g><g><path d="M49.158,373.232l-4.75,-10.705l-4.779,10.705l9.529,0Zm-5.825,-13.464l2.211,0l9.528,21.14l-2.539,0l-2.449,-5.547l-11.381,0l-2.479,5.547l-2.42,0l9.529,-21.14Z" style="fill:#6cae49;fill-rule:nonzero;"/><path d="M60.3,365.405l2.3,0l0,2.699c0.518,-0.84 1.195,-1.554 2.031,-2.144c0.837,-0.59 1.922,-0.885 3.256,-0.885c0.936,0 1.768,0.15 2.495,0.45c0.726,0.3 1.344,0.725 1.852,1.275c0.507,0.549 0.896,1.204 1.165,1.964c0.268,0.759 0.403,1.599 0.403,2.519l0,9.625l-2.3,0l0,-9.056c0,-1.439 -0.369,-2.578 -1.105,-3.418c-0.737,-0.84 -1.793,-1.26 -3.167,-1.26c-0.657,0 -1.269,0.115 -1.837,0.345c-0.567,0.23 -1.06,0.56 -1.479,0.99c-0.418,0.43 -0.741,0.944 -0.97,1.544c-0.229,0.6 -0.344,1.26 -0.344,1.979l0,8.876l-2.3,0l0,-15.503Z" style="fill:#6cae49;fill-rule:nonzero;"/><path d="M91.038,359.918l2.389,0l7.618,11.455l7.617,-11.455l2.39,0l0,20.99l-2.36,0l0,-17.002l-7.617,11.245l-0.12,0l-7.617,-11.215l0,16.972l-2.3,0l0,-20.99Z" style="fill:#6cae49;fill-rule:nonzero;"/><path d="M127.242,370.623c0.777,0 1.493,-0.1 2.151,-0.3c0.657,-0.2 1.224,-0.485 1.702,-0.855c0.478,-0.369 0.852,-0.819 1.12,-1.349c0.269,-0.53 0.404,-1.134 0.404,-1.814l0,-0.06c0,-1.299 -0.468,-2.314 -1.404,-3.044c-0.936,-0.729 -2.251,-1.094 -3.943,-1.094l-6.452,0l0,8.516l6.422,0Zm-8.782,-10.705l8.991,0c1.294,0 2.444,0.185 3.45,0.555c1.006,0.369 1.837,0.884 2.494,1.544c0.518,0.52 0.916,1.129 1.195,1.829c0.279,0.7 0.418,1.469 0.418,2.309l0,0.06c0,0.88 -0.139,1.664 -0.418,2.354c-0.279,0.69 -0.672,1.289 -1.18,1.799c-0.507,0.51 -1.11,0.93 -1.807,1.259c-0.697,0.33 -1.454,0.565 -2.27,0.705l6.422,8.576l-2.897,0l-6.064,-8.156l-0.06,0l-5.914,0l0,8.156l-2.36,0l0,-20.99Z" style="fill:#6cae49;fill-rule:nonzero;"/><rect x="141.759" y="359.918" width="2.36" height="20.99" style="fill:#6cae49;fill-rule:nonzero;"/><path d="M169.361,381.208c-1.673,0 -3.202,-0.275 -4.586,-0.825c-1.384,-0.549 -2.703,-1.394 -3.958,-2.533l1.464,-1.74c1.095,1 2.201,1.745 3.316,2.234c1.115,0.49 2.399,0.735 3.853,0.735c1.414,0 2.544,-0.335 3.391,-1.005c0.846,-0.669 1.269,-1.524 1.269,-2.563l0,-0.06c0,-0.48 -0.079,-0.915 -0.239,-1.305c-0.159,-0.39 -0.438,-0.744 -0.836,-1.064c-0.398,-0.32 -0.951,-0.61 -1.658,-0.87c-0.707,-0.26 -1.608,-0.51 -2.703,-0.75c-1.195,-0.259 -2.236,-0.559 -3.122,-0.899c-0.886,-0.34 -1.618,-0.75 -2.196,-1.23c-0.577,-0.479 -1.005,-1.039 -1.284,-1.679c-0.279,-0.639 -0.418,-1.389 -0.418,-2.249l0,-0.06c0,-0.819 0.169,-1.579 0.508,-2.279c0.338,-0.699 0.816,-1.304 1.433,-1.814c0.618,-0.51 1.345,-0.909 2.181,-1.199c0.836,-0.29 1.753,-0.435 2.748,-0.435c1.534,0 2.873,0.215 4.018,0.645c1.145,0.429 2.255,1.074 3.331,1.934l-1.374,1.829c-0.976,-0.8 -1.957,-1.379 -2.943,-1.739c-0.986,-0.36 -2.016,-0.54 -3.092,-0.54c-1.374,0 -2.459,0.325 -3.256,0.975c-0.796,0.649 -1.194,1.454 -1.194,2.413l0,0.06c0,0.5 0.079,0.945 0.239,1.335c0.159,0.39 0.448,0.749 0.866,1.079c0.418,0.33 0.996,0.63 1.732,0.9c0.737,0.27 1.683,0.525 2.838,0.765c2.33,0.519 4.048,1.239 5.153,2.159c1.105,0.919 1.658,2.179 1.658,3.778l0,0.06c0,0.899 -0.179,1.714 -0.538,2.444c-0.358,0.729 -0.851,1.354 -1.478,1.874c-0.628,0.519 -1.379,0.919 -2.256,1.199c-0.876,0.28 -1.832,0.42 -2.867,0.42Z" style="fill:#6cae49;fill-rule:nonzero;"/><path d="M189.524,379.199c0.836,0 1.603,-0.16 2.3,-0.48c0.697,-0.32 1.294,-0.75 1.792,-1.289c0.498,-0.54 0.886,-1.17 1.165,-1.889c0.279,-0.72 0.418,-1.49 0.418,-2.309l0,-0.06c0,-0.84 -0.144,-1.625 -0.433,-2.354c-0.288,-0.73 -0.692,-1.37 -1.21,-1.919c-0.517,-0.55 -1.125,-0.985 -1.822,-1.305c-0.697,-0.32 -1.453,-0.479 -2.27,-0.479c-0.836,0 -1.603,0.159 -2.3,0.479c-0.697,0.32 -1.289,0.75 -1.777,1.29c-0.488,0.539 -0.872,1.174 -1.15,1.904c-0.279,0.729 -0.419,1.504 -0.419,2.324l0,0.06c0,0.839 0.145,1.624 0.434,2.354c0.288,0.729 0.687,1.364 1.194,1.904c0.508,0.539 1.111,0.969 1.808,1.289c0.697,0.32 1.453,0.48 2.27,0.48Zm-0.06,2.069c-1.155,0 -2.22,-0.215 -3.196,-0.645c-0.976,-0.43 -1.822,-1.009 -2.539,-1.739c-0.717,-0.73 -1.275,-1.579 -1.673,-2.549c-0.398,-0.969 -0.597,-2.004 -0.597,-3.103l0,-0.06c0,-1.1 0.199,-2.139 0.597,-3.119c0.398,-0.979 0.956,-1.839 1.673,-2.579c0.717,-0.739 1.568,-1.324 2.554,-1.754c0.986,-0.43 2.066,-0.645 3.241,-0.645c1.155,0 2.225,0.215 3.211,0.645c0.986,0.43 1.837,1.01 2.554,1.739c0.717,0.73 1.275,1.58 1.673,2.549c0.398,0.97 0.597,2.004 0.597,3.104l0,0.06c0,1.099 -0.204,2.139 -0.612,3.118c-0.408,0.98 -0.971,1.839 -1.688,2.579c-0.717,0.74 -1.573,1.324 -2.569,1.754c-0.996,0.43 -2.071,0.645 -3.226,0.645Z" style="fill:#6cae49;fill-rule:nonzero;"/><path d="M204.071,367.444l-2.121,0l0,-2.009l2.121,0l0,-1.349c0,-1.759 0.448,-3.089 1.344,-3.988c0.797,-0.8 1.902,-1.2 3.316,-1.2c0.538,0 1.001,0.03 1.389,0.09c0.389,0.06 0.772,0.16 1.15,0.3l0,2.009c-0.418,-0.12 -0.796,-0.215 -1.135,-0.285c-0.338,-0.07 -0.707,-0.105 -1.105,-0.105c-1.792,0 -2.689,1.1 -2.689,3.299l0,1.259l4.899,0l0,1.979l-4.869,0l0,13.464l-2.3,0l0,-13.464Z" style="fill:#6cae49;fill-rule:nonzero;"/><path d="M220.829,381.178c-0.617,0 -1.195,-0.08 -1.732,-0.24c-0.538,-0.16 -1.001,-0.415 -1.389,-0.765c-0.389,-0.349 -0.692,-0.804 -0.912,-1.364c-0.219,-0.56 -0.328,-1.229 -0.328,-2.009l0,-9.356l-2.151,0l0,-2.039l2.151,0l0,-4.678l2.3,0l0,4.678l4.899,0l0,2.039l-4.899,0l0,9.056c0,0.96 0.239,1.629 0.717,2.009c0.478,0.38 1.105,0.57 1.882,0.57c0.398,0 0.771,-0.04 1.12,-0.12c0.348,-0.08 0.722,-0.22 1.12,-0.42l0,1.979c-0.398,0.22 -0.821,0.385 -1.269,0.495c-0.448,0.11 -0.951,0.165 -1.509,0.165Z" style="fill:#6cae49;fill-rule:nonzero;"/><path d="M227.909,365.405l2.449,0l4.063,12.445l4.152,-12.505l1.912,0l4.182,12.505l4.062,-12.445l2.39,0l-5.437,15.623l-2.001,0l-4.152,-12.234l-4.182,12.234l-2.032,0l-5.406,-15.623Z" style="fill:#6cae49;fill-rule:nonzero;"/><path d="M261.484,379.379c0.717,0 1.384,-0.1 2.002,-0.3c0.617,-0.2 1.16,-0.485 1.628,-0.855c0.467,-0.369 0.836,-0.809 1.105,-1.319c0.269,-0.51 0.403,-1.075 0.403,-1.694l0,-1.44c-0.577,-0.159 -1.235,-0.309 -1.971,-0.449c-0.737,-0.14 -1.584,-0.21 -2.54,-0.21c-1.433,0 -2.544,0.285 -3.33,0.854c-0.787,0.57 -1.18,1.325 -1.18,2.264l0,0.06c0,0.48 0.104,0.915 0.313,1.305c0.21,0.389 0.493,0.714 0.852,0.974c0.358,0.26 0.772,0.46 1.239,0.6c0.468,0.14 0.961,0.21 1.479,0.21Zm-0.448,1.859c-0.717,0 -1.424,-0.1 -2.121,-0.3c-0.697,-0.2 -1.314,-0.505 -1.852,-0.914c-0.538,-0.41 -0.971,-0.915 -1.299,-1.515c-0.329,-0.599 -0.493,-1.299 -0.493,-2.099l0,-0.06c0,-0.839 0.159,-1.574 0.478,-2.204c0.318,-0.629 0.771,-1.154 1.359,-1.574c0.587,-0.42 1.284,-0.74 2.091,-0.96c0.806,-0.219 1.698,-0.329 2.673,-0.329c0.996,0 1.857,0.06 2.584,0.179c0.727,0.12 1.439,0.28 2.136,0.48l0,-0.48c0,-1.379 -0.398,-2.423 -1.195,-3.133c-0.796,-0.71 -1.921,-1.065 -3.375,-1.065c-0.916,0 -1.748,0.1 -2.494,0.3c-0.747,0.2 -1.479,0.47 -2.196,0.81l-0.687,-1.889c0.856,-0.4 1.723,-0.72 2.599,-0.96c0.876,-0.24 1.882,-0.36 3.017,-0.36c2.19,0 3.853,0.57 4.988,1.71c1.076,1.079 1.613,2.598 1.613,4.558l0,9.475l-2.27,0l0,-2.309c-0.538,0.7 -1.259,1.315 -2.166,1.844c-0.906,0.53 -2.036,0.795 -3.39,0.795Z" style="fill:#6cae49;fill-rule:nonzero;"/><path d="M275.225,365.405l2.3,0l0,4.048c0.279,-0.639 0.627,-1.229 1.046,-1.769c0.418,-0.54 0.896,-1.004 1.433,-1.394c0.538,-0.39 1.126,-0.685 1.763,-0.885c0.637,-0.2 1.324,-0.29 2.061,-0.27l0,2.489l-0.179,0c-0.837,0 -1.628,0.15 -2.375,0.45c-0.747,0.3 -1.399,0.75 -1.957,1.349c-0.557,0.6 -0.995,1.345 -1.314,2.234c-0.319,0.89 -0.478,1.915 -0.478,3.074l0,6.177l-2.3,0l0,-15.503Z" style="fill:#6cae49;fill-rule:nonzero;"/><path d="M300.138,372.242c-0.06,-0.7 -0.209,-1.364 -0.448,-1.994c-0.239,-0.63 -0.563,-1.184 -0.971,-1.664c-0.408,-0.48 -0.906,-0.86 -1.494,-1.14c-0.587,-0.28 -1.259,-0.419 -2.016,-0.419c-0.657,0 -1.275,0.129 -1.852,0.389c-0.578,0.26 -1.085,0.625 -1.523,1.095c-0.439,0.47 -0.802,1.024 -1.091,1.664c-0.289,0.64 -0.473,1.329 -0.552,2.069l9.947,0Zm-9.947,1.859c0.079,0.82 0.278,1.55 0.597,2.189c0.319,0.64 0.727,1.18 1.225,1.62c0.498,0.439 1.055,0.774 1.673,1.004c0.617,0.23 1.264,0.345 1.941,0.345c1.076,0 1.997,-0.2 2.763,-0.6c0.767,-0.4 1.469,-0.929 2.106,-1.589l1.434,1.289c-0.777,0.88 -1.663,1.585 -2.658,2.114c-0.996,0.53 -2.231,0.795 -3.705,0.795c-1.055,0 -2.051,-0.195 -2.987,-0.585c-0.936,-0.39 -1.752,-0.939 -2.449,-1.649c-0.697,-0.71 -1.25,-1.564 -1.658,-2.564c-0.408,-0.999 -0.612,-2.099 -0.612,-3.298c0,-1.12 0.184,-2.174 0.552,-3.164c0.369,-0.989 0.881,-1.849 1.539,-2.579c0.657,-0.729 1.438,-1.304 2.345,-1.724c0.906,-0.42 1.896,-0.63 2.972,-0.63c1.135,0 2.15,0.215 3.047,0.645c0.896,0.43 1.653,1.015 2.27,1.754c0.617,0.74 1.085,1.61 1.404,2.609c0.318,1 0.478,2.069 0.478,3.209c0,0.1 0,0.215 0,0.344c0,0.13 -0.01,0.285 -0.03,0.465l-12.247,0Z" style="fill:#6cae49;fill-rule:nonzero;"/><path d="M328.396,381.268c-1.513,0 -2.907,-0.28 -4.182,-0.84c-1.274,-0.559 -2.38,-1.324 -3.316,-2.294c-0.936,-0.969 -1.667,-2.114 -2.195,-3.433c-0.528,-1.319 -0.792,-2.729 -0.792,-4.228l0,-0.06c0,-1.479 0.264,-2.879 0.792,-4.198c0.528,-1.319 1.259,-2.474 2.195,-3.463c0.936,-0.99 2.052,-1.77 3.346,-2.339c1.294,-0.57 2.708,-0.855 4.242,-0.855c0.956,0 1.817,0.08 2.584,0.24c0.766,0.16 1.478,0.385 2.135,0.675c0.658,0.289 1.265,0.639 1.823,1.049c0.557,0.41 1.095,0.865 1.613,1.364l-1.613,1.74c-0.897,-0.84 -1.857,-1.53 -2.883,-2.069c-1.026,-0.54 -2.255,-0.81 -3.689,-0.81c-1.155,0 -2.226,0.22 -3.211,0.66c-0.986,0.439 -1.842,1.049 -2.569,1.829c-0.727,0.779 -1.295,1.694 -1.703,2.744c-0.408,1.049 -0.612,2.174 -0.612,3.373l0,0.06c0,1.219 0.204,2.354 0.612,3.403c0.408,1.05 0.976,1.965 1.703,2.744c0.727,0.78 1.583,1.394 2.569,1.844c0.985,0.45 2.056,0.675 3.211,0.675c1.434,0 2.668,-0.265 3.704,-0.795c1.035,-0.529 2.051,-1.274 3.047,-2.234l1.553,1.53c-0.538,0.559 -1.1,1.064 -1.688,1.514c-0.587,0.45 -1.219,0.835 -1.896,1.154c-0.678,0.32 -1.404,0.57 -2.181,0.75c-0.777,0.18 -1.643,0.27 -2.599,0.27Z" style="fill:#6cae49;fill-rule:nonzero;"/><path d="M349.097,379.199c0.836,0 1.603,-0.16 2.3,-0.48c0.697,-0.32 1.295,-0.75 1.792,-1.289c0.498,-0.54 0.887,-1.17 1.165,-1.889c0.279,-0.72 0.419,-1.49 0.419,-2.309l0,-0.06c0,-0.84 -0.145,-1.625 -0.434,-2.354c-0.288,-0.73 -0.692,-1.37 -1.209,-1.919c-0.518,-0.55 -1.125,-0.985 -1.822,-1.305c-0.697,-0.32 -1.454,-0.479 -2.271,-0.479c-0.836,0 -1.603,0.159 -2.3,0.479c-0.697,0.32 -1.289,0.75 -1.777,1.29c-0.488,0.539 -0.871,1.174 -1.15,1.904c-0.279,0.729 -0.418,1.504 -0.418,2.324l0,0.06c0,0.839 0.144,1.624 0.433,2.354c0.289,0.729 0.687,1.364 1.195,1.904c0.507,0.539 1.11,0.969 1.807,1.289c0.697,0.32 1.454,0.48 2.27,0.48Zm-0.06,2.069c-1.155,0 -2.22,-0.215 -3.196,-0.645c-0.976,-0.43 -1.822,-1.009 -2.539,-1.739c-0.717,-0.73 -1.275,-1.579 -1.673,-2.549c-0.398,-0.969 -0.597,-2.004 -0.597,-3.103l0,-0.06c0,-1.1 0.199,-2.139 0.597,-3.119c0.398,-0.979 0.956,-1.839 1.673,-2.579c0.717,-0.739 1.568,-1.324 2.554,-1.754c0.986,-0.43 2.066,-0.645 3.241,-0.645c1.155,0 2.225,0.215 3.211,0.645c0.986,0.43 1.837,1.01 2.554,1.739c0.717,0.73 1.275,1.58 1.673,2.549c0.398,0.97 0.597,2.004 0.597,3.104l0,0.06c0,1.099 -0.204,2.139 -0.612,3.118c-0.408,0.98 -0.971,1.839 -1.688,2.579c-0.717,0.74 -1.573,1.324 -2.569,1.754c-0.995,0.43 -2.071,0.645 -3.226,0.645Z" style="fill:#6cae49;fill-rule:nonzero;"/><path d="M362.778,365.405l2.3,0l0,2.609c0.259,-0.38 0.543,-0.75 0.852,-1.109c0.308,-0.36 0.662,-0.675 1.06,-0.945c0.398,-0.27 0.846,-0.485 1.344,-0.645c0.498,-0.16 1.076,-0.24 1.733,-0.24c1.254,0 2.29,0.295 3.106,0.885c0.817,0.59 1.434,1.324 1.852,2.204c0.279,-0.42 0.593,-0.82 0.941,-1.199c0.349,-0.38 0.742,-0.71 1.18,-0.99c0.438,-0.28 0.931,-0.5 1.479,-0.66c0.548,-0.16 1.16,-0.24 1.837,-0.24c1.792,0 3.196,0.555 4.212,1.665c1.016,1.109 1.523,2.633 1.523,4.573l0,9.595l-2.3,0l0,-9.056c0,-1.499 -0.353,-2.653 -1.06,-3.463c-0.707,-0.81 -1.688,-1.215 -2.942,-1.215c-0.578,0 -1.126,0.105 -1.643,0.315c-0.518,0.21 -0.971,0.52 -1.36,0.93c-0.388,0.41 -0.697,0.914 -0.926,1.514c-0.229,0.6 -0.343,1.28 -0.343,2.039l0,8.936l-2.27,0l0,-9.116c0,-1.459 -0.354,-2.593 -1.061,-3.403c-0.707,-0.81 -1.678,-1.215 -2.912,-1.215c-0.618,0 -1.185,0.12 -1.703,0.36c-0.518,0.24 -0.971,0.58 -1.359,1.02c-0.388,0.44 -0.692,0.954 -0.911,1.544c-0.219,0.59 -0.329,1.245 -0.329,1.964l0,8.846l-2.3,0l0,-15.503Z" style="fill:#6cae49;fill-rule:nonzero;"/><path d="M400.476,379.169c0.737,0 1.439,-0.135 2.106,-0.405c0.667,-0.27 1.245,-0.66 1.732,-1.169c0.488,-0.51 0.877,-1.135 1.165,-1.874c0.289,-0.74 0.434,-1.58 0.434,-2.519l0,-0.06c0,-0.92 -0.145,-1.749 -0.434,-2.489c-0.288,-0.74 -0.682,-1.369 -1.18,-1.889c-0.497,-0.52 -1.075,-0.92 -1.732,-1.2c-0.657,-0.28 -1.354,-0.42 -2.091,-0.42c-0.717,0 -1.409,0.145 -2.076,0.435c-0.667,0.29 -1.265,0.7 -1.792,1.23c-0.528,0.529 -0.946,1.159 -1.255,1.889c-0.309,0.73 -0.463,1.534 -0.463,2.414l0,0.06c0,0.899 0.154,1.719 0.463,2.459c0.309,0.739 0.727,1.369 1.255,1.889c0.527,0.519 1.125,0.924 1.792,1.214c0.667,0.29 1.359,0.435 2.076,0.435Zm-7.797,-13.764l2.301,0l0,3.119c0.318,-0.46 0.672,-0.9 1.06,-1.32c0.388,-0.419 0.821,-0.784 1.299,-1.094c0.478,-0.31 1.011,-0.56 1.599,-0.75c0.587,-0.19 1.239,-0.285 1.956,-0.285c0.916,0 1.817,0.18 2.703,0.54c0.887,0.36 1.678,0.885 2.375,1.574c0.697,0.69 1.255,1.53 1.673,2.519c0.418,0.99 0.627,2.124 0.627,3.404l0,0.06c0,1.259 -0.209,2.389 -0.627,3.388c-0.418,1 -0.971,1.844 -1.658,2.534c-0.687,0.69 -1.473,1.219 -2.36,1.589c-0.886,0.37 -1.797,0.555 -2.733,0.555c-0.717,0 -1.374,-0.09 -1.971,-0.27c-0.598,-0.18 -1.135,-0.42 -1.613,-0.72c-0.478,-0.299 -0.912,-0.649 -1.3,-1.049c-0.388,-0.4 -0.732,-0.82 -1.03,-1.259l0,7.766l-2.301,0l0,-20.301Z" style="fill:#6cae49;fill-rule:nonzero;"/><path d="M419.056,379.379c0.717,0 1.384,-0.1 2.001,-0.3c0.618,-0.2 1.16,-0.485 1.628,-0.855c0.468,-0.369 0.837,-0.809 1.106,-1.319c0.268,-0.51 0.403,-1.075 0.403,-1.694l0,-1.44c-0.578,-0.159 -1.235,-0.309 -1.972,-0.449c-0.736,-0.14 -1.583,-0.21 -2.539,-0.21c-1.434,0 -2.544,0.285 -3.33,0.854c-0.787,0.57 -1.18,1.325 -1.18,2.264l0,0.06c0,0.48 0.104,0.915 0.313,1.305c0.209,0.389 0.493,0.714 0.852,0.974c0.358,0.26 0.771,0.46 1.239,0.6c0.468,0.14 0.961,0.21 1.479,0.21Zm-0.448,1.859c-0.717,0 -1.424,-0.1 -2.121,-0.3c-0.697,-0.2 -1.314,-0.505 -1.852,-0.914c-0.538,-0.41 -0.971,-0.915 -1.299,-1.515c-0.329,-0.599 -0.493,-1.299 -0.493,-2.099l0,-0.06c0,-0.839 0.159,-1.574 0.478,-2.204c0.318,-0.629 0.771,-1.154 1.359,-1.574c0.587,-0.42 1.284,-0.74 2.091,-0.96c0.806,-0.219 1.697,-0.329 2.673,-0.329c0.996,0 1.857,0.06 2.584,0.179c0.727,0.12 1.439,0.28 2.136,0.48l0,-0.48c0,-1.379 -0.398,-2.423 -1.195,-3.133c-0.796,-0.71 -1.922,-1.065 -3.375,-1.065c-0.916,0 -1.748,0.1 -2.495,0.3c-0.746,0.2 -1.478,0.47 -2.195,0.81l-0.687,-1.889c0.856,-0.4 1.722,-0.72 2.599,-0.96c0.876,-0.24 1.882,-0.36 3.017,-0.36c2.19,0 3.853,0.57 4.988,1.71c1.076,1.079 1.613,2.598 1.613,4.558l0,9.475l-2.27,0l0,-2.309c-0.538,0.7 -1.26,1.315 -2.166,1.844c-0.906,0.53 -2.036,0.795 -3.39,0.795Z" style="fill:#6cae49;fill-rule:nonzero;"/><path d="M432.797,365.405l2.3,0l0,2.699c0.518,-0.84 1.195,-1.554 2.031,-2.144c0.837,-0.59 1.922,-0.885 3.256,-0.885c0.936,0 1.768,0.15 2.494,0.45c0.727,0.3 1.345,0.725 1.852,1.275c0.508,0.549 0.897,1.204 1.165,1.964c0.269,0.759 0.404,1.599 0.404,2.519l0,9.625l-2.3,0l0,-9.056c0,-1.439 -0.369,-2.578 -1.106,-3.418c-0.736,-0.84 -1.792,-1.26 -3.166,-1.26c-0.657,0 -1.27,0.115 -1.837,0.345c-0.568,0.23 -1.061,0.56 -1.479,0.99c-0.418,0.43 -0.742,0.944 -0.971,1.544c-0.229,0.6 -0.343,1.26 -0.343,1.979l0,8.876l-2.3,0l0,-15.503Z" style="fill:#6cae49;fill-rule:nonzero;"/><path d="M455.081,385.796c-0.637,0 -1.215,-0.065 -1.733,-0.195c-0.517,-0.13 -1.035,-0.325 -1.553,-0.585l0.777,-1.829c0.378,0.2 0.751,0.345 1.12,0.435c0.368,0.09 0.801,0.135 1.299,0.135c0.697,0 1.285,-0.21 1.763,-0.63c0.478,-0.42 0.946,-1.179 1.404,-2.279l-7.02,-15.443l2.539,0l5.616,12.924l4.958,-12.924l2.45,0l-6.482,16.013c-0.657,1.599 -1.389,2.729 -2.196,3.388c-0.806,0.66 -1.787,0.99 -2.942,0.99Z" style="fill:#6cae49;fill-rule:nonzero;"/></g></g></g></svg>