<svg clip-rule="evenodd" fill-rule="evenodd" stroke-linejoin="round" stroke-miterlimit="1.41421" viewBox="0 0 109 52" xmlns="http://www.w3.org/2000/svg"><g fill-rule="nonzero"><path d="m39.797 19.63c0 10.571-8.569 19.14-19.14 19.14s-19.14-8.569-19.14-19.14 8.569-19.14 19.14-19.14 19.14 8.569 19.14 19.14" fill="#9bcc52"/><path d="m73.472 19.63c0 10.571-8.569 19.14-19.14 19.14s-19.14-8.569-19.14-19.14 8.569-19.14 19.14-19.14 19.14 8.569 19.14 19.14" fill="#75b354"/><path d="m37.495 28.739c1.468-2.709 2.302-5.811 2.302-9.109 0-3.297-.834-6.4-2.302-9.108-1.468 2.708-2.303 5.811-2.303 9.108 0 3.298.835 6.4 2.303 9.109" fill="#5aaa4c"/><path d="m107.147 19.63c0 10.571-8.569 19.14-19.14 19.14s-19.14-8.569-19.14-19.14 8.569-19.14 19.14-19.14 19.14 8.569 19.14 19.14" fill="#46a653"/><path d="m71.17 28.739c1.468-2.709 2.302-5.811 2.302-9.109 0-3.297-.834-6.4-2.302-9.108-1.468 2.708-2.303 5.811-2.303 9.108 0 3.298.835 6.4 2.303 9.109" fill="#409c50"/><path d="m25.517 28.206v-11.312l-4.876 7.401h-.099l-4.827-7.327v11.238h-3.737v-17.327h4.109l4.554 7.327 4.555-7.327h4.109v17.327z" fill="#fff"/><path d="m58.887 19.543c0-3.07-2.105-5.224-5.223-5.224h-2.946v10.447h2.946c3.118 0 5.223-2.104 5.223-5.174zm-5.223 8.662h-6.758v-17.326h6.758c5.445 0 9.208 3.738 9.208 8.614v.05c0 4.876-3.763 8.662-9.208 8.662" fill="#fff"/><path d="m87.999 15.335-2.302 5.619h4.604zm5.247 12.871-1.584-3.886h-7.327l-1.584 3.886h-3.886l7.426-17.45h3.514l7.426 17.45z" fill="#fff"/><g fill="#6c6d6f"><path d="m8.787 47.525c.37 0 .662-.093.876-.277.214-.185.321-.423.321-.714v-.015c0-.328-.108-.575-.325-.741-.217-.167-.507-.25-.872-.25h-1.133v1.997zm-2.108-2.885h2.188c.322 0 .614.044.875.131.262.087.484.213.666.377.182.163.322.359.42.586s.146.481.146.761v.016c0 .311-.058.585-.174.82s-.275.432-.475.59c-.201.159-.436.279-.706.361-.269.082-.557.122-.863.122h-1.102v1.783h-.975z"/><path d="m14.77 47.39c.349 0 .626-.083.832-.249.206-.167.309-.393.309-.678v-.016c0-.301-.1-.529-.301-.685s-.483-.234-.848-.234h-1.418v1.862zm-2.401-2.75h2.473c.348 0 .657.049.927.147.269.098.494.234.673.408.148.153.262.33.341.531s.119.423.119.666v.016c0 .227-.033.431-.099.614-.066.182-.157.343-.274.483-.116.14-.254.259-.416.357-.161.097-.339.173-.535.226l1.498 2.099h-1.149l-1.363-1.933h-.016-1.204v1.933h-.975z"/><path d="m21.157 49.387c.275 0 .527-.051.757-.154s.427-.243.59-.42c.164-.177.292-.385.385-.622.092-.238.138-.492.138-.761v-.016c0-.269-.046-.524-.138-.765-.093-.24-.222-.449-.389-.626-.166-.177-.365-.318-.598-.424-.232-.105-.486-.158-.761-.158-.274 0-.527.051-.756.154-.23.103-.427.243-.591.42s-.292.385-.384.622c-.093.238-.139.492-.139.761v.016c0 .269.046.524.139.765.092.24.222.449.388.626.167.177.366.318.598.424.233.105.487.158.761.158zm-.016.896c-.428 0-.818-.076-1.172-.226-.354-.151-.658-.356-.912-.614-.253-.259-.451-.562-.594-.908s-.214-.714-.214-1.105v-.016c0-.391.071-.759.214-1.105.143-.347.343-.65.602-.912.259-.261.565-.469.919-.622s.745-.23 1.173-.23.819.076 1.173.226c.354.151.658.355.911.614.254.259.452.562.595.908.142.346.214.714.214 1.105v.016c0 .391-.072.759-.214 1.105-.143.346-.344.65-.603.912-.258.261-.565.469-.919.622s-.745.23-1.173.23z"/><path d="m27.734 47.525c.37 0 .662-.093.876-.277.214-.185.321-.423.321-.714v-.015c0-.328-.108-.575-.325-.741-.217-.167-.507-.25-.872-.25h-1.133v1.997zm-2.107-2.885h2.187c.322 0 .614.044.875.131.262.087.484.213.666.377.182.163.322.359.42.586s.147.481.147.761v.016c0 .311-.059.585-.175.82s-.275.432-.475.59c-.201.159-.436.279-.706.361-.269.082-.557.122-.863.122h-1.102v1.783h-.974z"/><path d="m31.316 44.64h4.113v.872h-3.138v1.442h2.781v.872h-2.781v1.49h3.178v.871h-4.153z"/><path d="m39.423 47.39c.348 0 .626-.083.832-.249.206-.167.309-.393.309-.678v-.016c0-.301-.101-.529-.301-.685-.201-.156-.484-.234-.848-.234h-1.419v1.862zm-2.401-2.75h2.472c.349 0 .658.049.927.147.27.098.494.234.674.408.148.153.261.33.341.531.079.201.118.423.118.666v.016c0 .227-.033.431-.099.614-.066.182-.157.343-.273.483s-.255.259-.416.357c-.161.097-.339.173-.535.226l1.498 2.099h-1.149l-1.363-1.933h-.016-1.205v1.933h-.974z"/><path d="m44.51 45.544h-1.759v-.904h4.501v.904h-1.759v4.643h-.983z"/><path d="m50.311 48-2.203-3.36h1.149l1.553 2.457 1.569-2.457h1.117l-2.203 3.337v2.21h-.982z"/><path d="m57.522 44.64h1.038l1.688 2.623 1.688-2.623h1.038v5.547h-.975v-3.978l-1.751 2.615h-.032l-1.735-2.599v3.962h-.959z"/><path d="m68.156 47.984-.959-2.218-.95 2.218zm-1.394-3.383h.903l2.441 5.586h-1.03l-.563-1.339h-2.623l-.571 1.339h-.998z"/><path d="m71.453 44.64h.903l2.972 3.836v-3.836h.959v5.547h-.817l-3.058-3.946v3.946h-.959z"/><path d="m81.469 47.984-.959-2.218-.951 2.218zm-1.394-3.383h.903l2.441 5.586h-1.031l-.562-1.339h-2.623l-.571 1.339h-.998z"/><path d="m87.397 50.283c-.434 0-.827-.073-1.181-.218-.354-.146-.657-.346-.907-.603-.251-.256-.446-.557-.583-.903s-.206-.722-.206-1.129v-.016c0-.386.07-.753.21-1.102.14-.348.337-.653.59-.915.254-.261.556-.469.908-.622.351-.153.735-.23 1.153-.23.243 0 .463.018.661.052.199.034.382.083.551.146.169.064.329.142.48.234.15.093.297.2.439.321l-.618.737c-.105-.09-.214-.172-.325-.246-.111-.073-.227-.136-.348-.186-.122-.05-.255-.09-.4-.119-.146-.029-.306-.043-.48-.043-.253 0-.49.053-.709.158-.219.106-.41.247-.571.424s-.288.385-.38.622c-.092.238-.139.489-.139.753v.016c0 .285.045.549.135.792s.218.452.384.626c.167.175.365.312.595.412.229.101.487.151.772.151.264 0 .511-.038.741-.115.23-.076.429-.178.598-.305v-1.038h-1.418v-.848h2.361v2.33c-.137.116-.289.227-.455.333-.167.105-.346.198-.539.277s-.4.141-.622.186-.454.068-.697.068z"/><path d="m91.375 44.64h4.112v.872h-3.138v1.442h2.782v.872h-2.782v1.49h3.178v.871h-4.152z"/><path d="m99.481 47.39c.349 0 .626-.083.832-.249.206-.167.309-.393.309-.678v-.016c0-.301-.1-.529-.301-.685s-.483-.234-.848-.234h-1.418v1.862zm-2.401-2.75h2.472c.349 0 .658.049.928.147.269.098.494.234.673.408.148.153.262.33.341.531s.119.423.119.666v.016c0 .227-.033.431-.099.614-.066.182-.157.343-.274.483-.116.14-.255.259-.416.357-.161.097-.339.173-.535.226l1.498 2.099h-1.149l-1.363-1.933h-.016-1.204v1.933h-.975z"/><path d="m105.813 48.927c-.217 0-.419-.039-.607-.118-.187-.08-.348-.189-.483-.329s-.24-.303-.317-.488c-.076-.184-.115-.385-.115-.602v-.016c0-.211.039-.41.115-.598.077-.188.182-.353.317-.495.135-.143.297-.255.487-.337.191-.082.397-.123.619-.123.285 0 .517.044.697.131.179.087.341.199.483.337l-.372.428c-.116-.106-.241-.192-.373-.258s-.277-.099-.435-.099c-.138 0-.263.026-.377.079-.113.053-.211.126-.293.218-.082.093-.147.2-.194.321-.048.122-.072.251-.072.388v.016c0 .138.024.267.072.389.047.121.112.228.194.32.082.093.18.166.293.218.114.053.239.08.377.08.179 0 .331-.033.455-.099s.247-.158.369-.274l.38.373c-.158.169-.33.301-.515.396s-.42.142-.705.142zm-.04 1.07c.365 0 .704-.068 1.018-.206.315-.137.587-.322.817-.554.229-.233.41-.506.542-.821.132-.314.198-.648.198-1.002v-.016c0-.354-.064-.687-.194-.998-.129-.312-.309-.584-.539-.817-.229-.232-.5-.416-.812-.55-.311-.135-.65-.202-1.014-.202-.365 0-.704.068-1.018.206-.315.137-.587.322-.817.554-.229.233-.41.506-.542.821-.132.314-.198.648-.198 1.002v.016c0 .354.064.687.194.998.129.312.309.584.539.816.229.233.5.416.812.551.311.135.65.202 1.014.202zm0 .286c-.401 0-.777-.076-1.125-.226-.349-.151-.651-.356-.908-.614-.256-.259-.458-.562-.606-.908s-.222-.714-.222-1.105v-.016c0-.391.074-.759.222-1.105.148-.347.352-.65.61-.912.259-.261.564-.469.916-.622.351-.153.727-.23 1.129-.23.401 0 .776.076 1.125.226.349.151.651.355.908.614.256.259.458.562.606.908s.222.714.222 1.105v.016c0 .391-.074.759-.222 1.105s-.352.65-.61.912c-.259.261-.564.469-.916.622-.351.153-.727.23-1.129.23z"/></g></g></svg>