<svg clip-rule="evenodd" fill-rule="evenodd" stroke-linejoin="round" stroke-miterlimit="1.41421" viewBox="0 0 512 512" xmlns="http://www.w3.org/2000/svg" xmlns:xlink="http://www.w3.org/1999/xlink"><clipPath id="a"><path clip-rule="evenodd" d="m0 0h512v512h-512z"/></clipPath><path d="m0 0h512v512h-512z" fill="none"/><g clip-path="url(#a)" fill-rule="nonzero"><path d="m190.935 204.84c0 46.791-37.931 84.722-84.722 84.722-46.79 0-84.722-37.931-84.722-84.722 0-46.79 37.932-84.722 84.722-84.722 46.791 0 84.722 37.932 84.722 84.722" fill="#9bcc52"/><path d="m339.994 204.84c0 46.791-37.931 84.722-84.722 84.722-46.79 0-84.722-37.931-84.722-84.722 0-46.79 37.932-84.722 84.722-84.722 46.791 0 84.722 37.932 84.722 84.722" fill="#75b354"/><path d="m180.743 245.158c6.499-11.989 10.191-25.722 10.191-40.318s-3.692-28.329-10.191-40.318c-6.498 11.989-10.191 25.722-10.191 40.318s3.693 28.329 10.191 40.318" fill="#5aaa4c"/><path d="m489.053 204.84c0 46.791-37.932 84.722-84.722 84.722-46.791 0-84.722-37.931-84.722-84.722 0-46.79 37.931-84.722 84.722-84.722 46.79 0 84.722 37.932 84.722 84.722" fill="#46a653"/><path d="m329.802 245.158c6.499-11.989 10.191-25.722 10.191-40.318s-3.692-28.329-10.191-40.318c-6.498 11.989-10.191 25.722-10.191 40.318s3.693 28.329 10.191 40.318" fill="#409c50"/><path d="m127.726 242.799v-50.068l-21.584 32.757h-.438l-21.364-32.429v49.74h-16.545v-76.694h18.188l20.159 32.431 20.161-32.431h18.188v76.694z" fill="#fff"/><path d="m275.432 204.453c0-13.586-9.314-23.12-23.118-23.12h-13.038v46.239h13.038c13.804 0 23.118-9.313 23.118-22.901zm-23.118 38.345h-29.911v-76.692h29.911c24.103 0 40.758 16.545 40.758 38.127v.22c0 21.584-16.655 38.345-40.758 38.345" fill="#fff"/><path d="m404.293 185.828-10.189 24.871h20.378zm23.228 56.971-7.011-17.201h-32.434l-7.011 17.201h-17.2l32.869-77.24h15.556l32.871 77.24z" fill="#fff"/><path d="m48.674 328.313c1.637 0 2.929-.409 3.876-1.228.947-.818 1.42-1.87 1.42-3.156v-.071c0-1.449-.479-2.543-1.438-3.279-.959-.737-2.245-1.105-3.858-1.105h-5.016v8.839zm-9.33-12.768h9.681c1.426 0 2.718.193 3.875.579 1.158.386 2.14.941 2.947 1.666s1.426 1.59 1.859 2.596c.432 1.005.649 2.128.649 3.367v.07c0 1.38-.257 2.59-.772 3.631-.514 1.04-1.216 1.911-2.104 2.613-.889.701-1.93 1.233-3.122 1.596-1.193.362-2.467.544-3.824.544h-4.875v7.892h-4.314z" fill="#fff"/><path d="m75.156 327.717c1.544 0 2.771-.368 3.683-1.105s1.368-1.736 1.368-2.999v-.07c0-1.333-.444-2.344-1.333-3.034-.888-.69-2.139-1.035-3.753-1.035h-6.279v8.243zm-10.628-12.172h10.944c1.543 0 2.911.217 4.104.649 1.192.433 2.186 1.035 2.981 1.807.655.678 1.158 1.461 1.508 2.35.351.888.527 1.871.527 2.946v.07c0 1.006-.147 1.912-.439 2.719s-.695 1.52-1.21 2.139c-.514.62-1.128 1.146-1.841 1.579-.714.432-1.503.766-2.368 1l6.629 9.295h-5.086l-6.033-8.559h-.07-5.332v8.559h-4.314z" fill="#fff"/><path d="m103.427 336.556c1.216 0 2.333-.228 3.35-.684s1.888-1.076 2.613-1.859 1.292-1.701 1.702-2.754c.409-1.052.613-2.174.613-3.367v-.07c0-1.193-.204-2.321-.613-3.385-.41-1.064-.983-1.987-1.719-2.771-.737-.783-1.62-1.409-2.648-1.876-1.029-.468-2.152-.702-3.368-.702s-2.332.228-3.349.684c-1.018.456-1.889 1.076-2.614 1.859s-1.292 1.701-1.701 2.754c-.409 1.052-.614 2.174-.614 3.367v.07c0 1.193.205 2.321.614 3.385s.982 1.988 1.719 2.771 1.619 1.409 2.648 1.876c1.029.468 2.151.702 3.367.702zm-.07 3.964c-1.894 0-3.624-.334-5.191-1-1.567-.667-2.911-1.573-4.034-2.718-1.122-1.146-1.999-2.485-2.63-4.017-.632-1.531-.947-3.162-.947-4.893v-.07c0-1.73.315-3.361.947-4.893.631-1.532 1.52-2.876 2.665-4.034 1.146-1.157 2.502-2.075 4.069-2.753s3.297-1.017 5.191-1.017c1.895 0 3.625.333 5.192.999 1.566.667 2.911 1.573 4.033 2.719 1.123 1.145 2 2.484 2.631 4.016.632 1.531.947 3.162.947 4.893v.07c0 1.73-.315 3.361-.947 4.893-.631 1.532-1.52 2.876-2.666 4.034-1.145 1.157-2.502 2.075-4.068 2.753-1.567.678-3.298 1.018-5.192 1.018z" fill="#fff"/><path d="m132.541 328.313c1.636 0 2.928-.409 3.875-1.228.947-.818 1.421-1.87 1.421-3.156v-.071c0-1.449-.479-2.543-1.438-3.279-.959-.737-2.245-1.105-3.858-1.105h-5.016v8.839zm-9.331-12.768h9.681c1.427 0 2.719.193 3.876.579 1.158.386 2.14.941 2.947 1.666.806.725 1.426 1.59 1.859 2.596.432 1.005.649 2.128.649 3.367v.07c0 1.38-.258 2.59-.772 3.631-.515 1.04-1.216 1.911-2.105 2.613-.888.701-1.929 1.233-3.121 1.596-1.193.362-2.467.544-3.824.544h-4.875v7.892h-4.315z" fill="#fff"/><path d="m148.395 315.545h18.204v3.859h-13.89v6.384h12.312v3.858h-12.312v6.594h14.066v3.859h-18.38z" fill="#fff"/><path d="m184.278 327.717c1.543 0 2.771-.368 3.683-1.105s1.368-1.736 1.368-2.999v-.07c0-1.333-.445-2.344-1.333-3.034-.889-.69-2.14-1.035-3.753-1.035h-6.279v8.243zm-10.628-12.172h10.943c1.544 0 2.912.217 4.104.649 1.193.433 2.187 1.035 2.982 1.807.654.678 1.157 1.461 1.508 2.35.351.888.526 1.871.526 2.946v.07c0 1.006-.146 1.912-.438 2.719-.293.807-.696 1.52-1.21 2.139-.515.62-1.129 1.146-1.842 1.579-.713.432-1.502.766-2.368 1l6.63 9.295h-5.086l-6.033-8.559h-.07-5.332v8.559h-4.314z" fill="#fff"/><path d="m206.796 319.544h-7.786v-3.999h19.923v3.999h-7.787v20.555h-4.35z" fill="#fff"/><path d="m232.472 330.418-9.751-14.873h5.086l6.875 10.874 6.945-10.874h4.946l-9.751 14.767v9.787h-4.35z" fill="#fff"/><path d="m264.391 315.545h4.595l7.471 11.611 7.472-11.611h4.595v24.554h-4.315v-17.609l-7.752 11.576h-.14l-7.682-11.505v17.538h-4.244z" fill="#fff"/><path d="m311.463 330.348-4.244-9.822-4.209 9.822zm-6.173-14.978h3.999l10.803 24.729h-4.56l-2.49-5.928h-11.61l-2.526 5.928h-4.42z" fill="#fff"/><path d="m326.055 315.545h3.999l13.153 16.977v-16.977h4.244v24.554h-3.613l-13.539-17.468v17.468h-4.244z" fill="#fff"/><path d="m370.391 330.348-4.244-9.822-4.209 9.822zm-6.173-14.978h3.998l10.804 24.729h-4.56l-2.491-5.928h-11.61l-2.525 5.928h-4.42z" fill="#fff"/><path d="m396.628 340.52c-1.918 0-3.66-.322-5.226-.965-1.567-.643-2.906-1.532-4.017-2.666-1.11-1.134-1.97-2.467-2.578-3.998-.608-1.532-.912-3.198-.912-4.999v-.07c0-1.707.31-3.332.93-4.876.619-1.543 1.491-2.893 2.613-4.051 1.122-1.157 2.461-2.075 4.016-2.753s3.256-1.017 5.104-1.017c1.075 0 2.052.076 2.929.228.876.152 1.689.368 2.437.648.749.281 1.456.626 2.122 1.035.667.409 1.316.883 1.947 1.421l-2.736 3.262c-.467-.398-.947-.76-1.438-1.088-.491-.327-1.005-.602-1.543-.824s-1.129-.397-1.772-.526-1.35-.193-2.122-.193c-1.122 0-2.169.234-3.139.702-.97.467-1.812 1.093-2.525 1.876-.714.784-1.275 1.701-1.684 2.754-.409 1.052-.614 2.163-.614 3.332v.07c0 1.263.199 2.432.596 3.508.398 1.075.965 1.999 1.702 2.771.736.771 1.613 1.379 2.63 1.824 1.017.444 2.157.666 3.42.666 1.169 0 2.263-.169 3.28-.509 1.017-.339 1.9-.789 2.648-1.35v-4.595h-6.279v-3.753h10.453v10.312c-.608.515-1.28 1.006-2.017 1.473-.736.468-1.531.877-2.385 1.228s-1.771.626-2.753.824c-.983.199-2.011.299-3.087.299z" fill="#fff"/><path d="m414.236 315.545h18.204v3.859h-13.89v6.384h12.312v3.858h-12.312v6.594h14.066v3.859h-18.38z" fill="#fff"/><path d="m450.119 327.717c1.543 0 2.771-.368 3.683-1.105s1.368-1.736 1.368-2.999v-.07c0-1.333-.445-2.344-1.333-3.034-.889-.69-2.14-1.035-3.753-1.035h-6.279v8.243zm-10.628-12.172h10.943c1.544 0 2.912.217 4.104.649 1.193.433 2.187 1.035 2.982 1.807.655.678 1.157 1.461 1.508 2.35.351.888.526 1.871.526 2.946v.07c0 1.006-.146 1.912-.438 2.719-.293.807-.696 1.52-1.21 2.139-.515.62-1.129 1.146-1.842 1.579-.713.432-1.502.766-2.367 1l6.629 9.295h-5.086l-6.033-8.559h-.07-5.332v8.559h-4.314z" fill="#fff"/><path d="m478.145 334.522c-.959 0-1.854-.176-2.684-.527-.83-.35-1.543-.836-2.139-1.455-.597-.62-1.064-1.339-1.403-2.157-.34-.819-.509-1.707-.509-2.666v-.07c0-.936.169-1.818.509-2.649.339-.83.806-1.56 1.403-2.192.596-.631 1.315-1.128 2.157-1.491.842-.362 1.754-.543 2.736-.543 1.262 0 2.291.193 3.086.579.795.385 1.509.882 2.14 1.49l-1.649 1.894c-.514-.467-1.064-.847-1.648-1.14-.585-.292-1.228-.438-1.929-.438-.608 0-1.164.117-1.666.351-.503.234-.936.555-1.298.964-.363.41-.649.883-.86 1.421-.21.538-.315 1.111-.315 1.719v.07c0 .608.105 1.181.315 1.718.211.538.497 1.012.86 1.421.362.409.795.731 1.298.965.502.233 1.058.35 1.666.35.795 0 1.467-.146 2.017-.438.549-.292 1.093-.696 1.631-1.21l1.683 1.648c-.701.749-1.461 1.333-2.28 1.754-.818.421-1.859.632-3.121.632zm-.176 4.735c1.614 0 3.116-.304 4.507-.912 1.392-.608 2.596-1.427 3.613-2.455 1.017-1.029 1.818-2.239 2.403-3.631.585-1.391.877-2.87.877-4.437v-.07c0-1.567-.287-3.04-.86-4.42-.572-1.379-1.367-2.584-2.385-3.613-1.017-1.028-2.215-1.841-3.595-2.437-1.38-.597-2.876-.895-4.49-.895-1.613 0-3.116.304-4.507.912s-2.596 1.427-3.613 2.456c-1.017 1.028-1.818 2.239-2.403 3.63-.584 1.391-.876 2.87-.876 4.437v.07c0 1.567.286 3.04.859 4.42.573 1.379 1.368 2.584 2.385 3.613 1.017 1.028 2.216 1.841 3.595 2.437 1.38.597 2.877.895 4.49.895zm0 1.263c-1.777 0-3.437-.334-4.981-1-1.543-.667-2.882-1.573-4.016-2.718-1.134-1.146-2.028-2.485-2.683-4.017-.655-1.531-.982-3.162-.982-4.893v-.07c0-1.73.327-3.361.982-4.893s1.555-2.876 2.701-4.034c1.145-1.157 2.496-2.075 4.051-2.753s3.221-1.017 4.998-1.017 3.438.333 4.981.999c1.543.667 2.882 1.573 4.016 2.719 1.134 1.145 2.029 2.484 2.684 4.016.654 1.531.982 3.162.982 4.893v.07c0 1.73-.328 3.361-.982 4.893-.655 1.532-1.555 2.876-2.701 4.034-1.146 1.157-2.497 2.075-4.052 2.753s-3.221 1.018-4.998 1.018z" fill="#fff"/><g fill="#6cae49"><path d="m49.158 373.232-4.75-10.705-4.779 10.705zm-5.825-13.464h2.211l9.528 21.14h-2.539l-2.449-5.547h-11.381l-2.479 5.547h-2.42z"/><path d="m60.3 365.405h2.3v2.699c.518-.84 1.195-1.554 2.031-2.144.837-.59 1.922-.885 3.256-.885.936 0 1.768.15 2.495.45.726.3 1.344.725 1.852 1.275.507.549.896 1.204 1.165 1.964.268.759.403 1.599.403 2.519v9.625h-2.3v-9.056c0-1.439-.369-2.578-1.105-3.418-.737-.84-1.793-1.26-3.167-1.26-.657 0-1.269.115-1.837.345-.567.23-1.06.56-1.479.99-.418.43-.741.944-.97 1.544s-.344 1.26-.344 1.979v8.876h-2.3z"/><path d="m91.038 359.918h2.389l7.618 11.455 7.617-11.455h2.39v20.99h-2.36v-17.002l-7.617 11.245h-.12l-7.617-11.215v16.972h-2.3z"/><path d="m127.242 370.623c.777 0 1.493-.1 2.151-.3.657-.2 1.224-.485 1.702-.855.478-.369.852-.819 1.12-1.349.269-.53.404-1.134.404-1.814v-.06c0-1.299-.468-2.314-1.404-3.044-.936-.729-2.251-1.094-3.943-1.094h-6.452v8.516zm-8.782-10.705h8.991c1.294 0 2.444.185 3.45.555 1.006.369 1.837.884 2.494 1.544.518.52.916 1.129 1.195 1.829s.418 1.469.418 2.309v.06c0 .88-.139 1.664-.418 2.354s-.672 1.289-1.18 1.799c-.507.51-1.11.93-1.807 1.259-.697.33-1.454.565-2.27.705l6.422 8.576h-2.897l-6.064-8.156h-.06-5.914v8.156h-2.36z"/><path d="m141.759 359.918h2.36v20.99h-2.36z"/><path d="m169.361 381.208c-1.673 0-3.202-.275-4.586-.825-1.384-.549-2.703-1.394-3.958-2.533l1.464-1.74c1.095 1 2.201 1.745 3.316 2.234 1.115.49 2.399.735 3.853.735 1.414 0 2.544-.335 3.391-1.005.846-.669 1.269-1.524 1.269-2.563v-.06c0-.48-.079-.915-.239-1.305-.159-.39-.438-.744-.836-1.064s-.951-.61-1.658-.87-1.608-.51-2.703-.75c-1.195-.259-2.236-.559-3.122-.899s-1.618-.75-2.196-1.23c-.577-.479-1.005-1.039-1.284-1.679-.279-.639-.418-1.389-.418-2.249v-.06c0-.819.169-1.579.508-2.279.338-.699.816-1.304 1.433-1.814.618-.51 1.345-.909 2.181-1.199s1.753-.435 2.748-.435c1.534 0 2.873.215 4.018.645 1.145.429 2.255 1.074 3.331 1.934l-1.374 1.829c-.976-.8-1.957-1.379-2.943-1.739s-2.016-.54-3.092-.54c-1.374 0-2.459.325-3.256.975-.796.649-1.194 1.454-1.194 2.413v.06c0 .5.079.945.239 1.335.159.39.448.749.866 1.079s.996.63 1.732.9c.737.27 1.683.525 2.838.765 2.33.519 4.048 1.239 5.153 2.159 1.105.919 1.658 2.179 1.658 3.778v.06c0 .899-.179 1.714-.538 2.444-.358.729-.851 1.354-1.478 1.874-.628.519-1.379.919-2.256 1.199-.876.28-1.832.42-2.867.42z"/><path d="m189.524 379.199c.836 0 1.603-.16 2.3-.48s1.294-.75 1.792-1.289c.498-.54.886-1.17 1.165-1.889.279-.72.418-1.49.418-2.309v-.06c0-.84-.144-1.625-.433-2.354-.288-.73-.692-1.37-1.21-1.919-.517-.55-1.125-.985-1.822-1.305s-1.453-.479-2.27-.479c-.836 0-1.603.159-2.3.479s-1.289.75-1.777 1.29c-.488.539-.872 1.174-1.15 1.904-.279.729-.419 1.504-.419 2.324v.06c0 .839.145 1.624.434 2.354.288.729.687 1.364 1.194 1.904.508.539 1.111.969 1.808 1.289s1.453.48 2.27.48zm-.06 2.069c-1.155 0-2.22-.215-3.196-.645s-1.822-1.009-2.539-1.739-1.275-1.579-1.673-2.549c-.398-.969-.597-2.004-.597-3.103v-.06c0-1.1.199-2.139.597-3.119.398-.979.956-1.839 1.673-2.579.717-.739 1.568-1.324 2.554-1.754s2.066-.645 3.241-.645c1.155 0 2.225.215 3.211.645s1.837 1.01 2.554 1.739c.717.73 1.275 1.58 1.673 2.549.398.97.597 2.004.597 3.104v.06c0 1.099-.204 2.139-.612 3.118-.408.98-.971 1.839-1.688 2.579s-1.573 1.324-2.569 1.754-2.071.645-3.226.645z"/><path d="m204.071 367.444h-2.121v-2.009h2.121v-1.349c0-1.759.448-3.089 1.344-3.988.797-.8 1.902-1.2 3.316-1.2.538 0 1.001.03 1.389.09.389.06.772.16 1.15.3v2.009c-.418-.12-.796-.215-1.135-.285-.338-.07-.707-.105-1.105-.105-1.792 0-2.689 1.1-2.689 3.299v1.259h4.899v1.979h-4.869v13.464h-2.3z"/><path d="m220.829 381.178c-.617 0-1.195-.08-1.732-.24-.538-.16-1.001-.415-1.389-.765-.389-.349-.692-.804-.912-1.364-.219-.56-.328-1.229-.328-2.009v-9.356h-2.151v-2.039h2.151v-4.678h2.3v4.678h4.899v2.039h-4.899v9.056c0 .96.239 1.629.717 2.009s1.105.57 1.882.57c.398 0 .771-.04 1.12-.12.348-.08.722-.22 1.12-.42v1.979c-.398.22-.821.385-1.269.495s-.951.165-1.509.165z"/><path d="m227.909 365.405h2.449l4.063 12.445 4.152-12.505h1.912l4.182 12.505 4.062-12.445h2.39l-5.437 15.623h-2.001l-4.152-12.234-4.182 12.234h-2.032z"/><path d="m261.484 379.379c.717 0 1.384-.1 2.002-.3.617-.2 1.16-.485 1.628-.855.467-.369.836-.809 1.105-1.319s.403-1.075.403-1.694v-1.44c-.577-.159-1.235-.309-1.971-.449-.737-.14-1.584-.21-2.54-.21-1.433 0-2.544.285-3.33.854-.787.57-1.18 1.325-1.18 2.264v.06c0 .48.104.915.313 1.305.21.389.493.714.852.974.358.26.772.46 1.239.6.468.14.961.21 1.479.21zm-.448 1.859c-.717 0-1.424-.1-2.121-.3s-1.314-.505-1.852-.914c-.538-.41-.971-.915-1.299-1.515-.329-.599-.493-1.299-.493-2.099v-.06c0-.839.159-1.574.478-2.204.318-.629.771-1.154 1.359-1.574.587-.42 1.284-.74 2.091-.96.806-.219 1.698-.329 2.673-.329.996 0 1.857.06 2.584.179.727.12 1.439.28 2.136.48v-.48c0-1.379-.398-2.423-1.195-3.133-.796-.71-1.921-1.065-3.375-1.065-.916 0-1.748.1-2.494.3-.747.2-1.479.47-2.196.81l-.687-1.889c.856-.4 1.723-.72 2.599-.96s1.882-.36 3.017-.36c2.19 0 3.853.57 4.988 1.71 1.076 1.079 1.613 2.598 1.613 4.558v9.475h-2.27v-2.309c-.538.7-1.259 1.315-2.166 1.844-.906.53-2.036.795-3.39.795z"/><path d="m275.225 365.405h2.3v4.048c.279-.639.627-1.229 1.046-1.769.418-.54.896-1.004 1.433-1.394.538-.39 1.126-.685 1.763-.885s1.324-.29 2.061-.27v2.489h-.179c-.837 0-1.628.15-2.375.45s-1.399.75-1.957 1.349c-.557.6-.995 1.345-1.314 2.234-.319.89-.478 1.915-.478 3.074v6.177h-2.3z"/><path d="m300.138 372.242c-.06-.7-.209-1.364-.448-1.994s-.563-1.184-.971-1.664-.906-.86-1.494-1.14c-.587-.28-1.259-.419-2.016-.419-.657 0-1.275.129-1.852.389-.578.26-1.085.625-1.523 1.095-.439.47-.802 1.024-1.091 1.664s-.473 1.329-.552 2.069zm-9.947 1.859c.079.82.278 1.55.597 2.189.319.64.727 1.18 1.225 1.62.498.439 1.055.774 1.673 1.004.617.23 1.264.345 1.941.345 1.076 0 1.997-.2 2.763-.6.767-.4 1.469-.929 2.106-1.589l1.434 1.289c-.777.88-1.663 1.585-2.658 2.114-.996.53-2.231.795-3.705.795-1.055 0-2.051-.195-2.987-.585s-1.752-.939-2.449-1.649-1.25-1.564-1.658-2.564c-.408-.999-.612-2.099-.612-3.298 0-1.12.184-2.174.552-3.164.369-.989.881-1.849 1.539-2.579.657-.729 1.438-1.304 2.345-1.724.906-.42 1.896-.63 2.972-.63 1.135 0 2.15.215 3.047.645.896.43 1.653 1.015 2.27 1.754.617.74 1.085 1.61 1.404 2.609.318 1 .478 2.069.478 3.209v.344c0 .13-.01.285-.03.465z"/><path d="m328.396 381.268c-1.513 0-2.907-.28-4.182-.84-1.274-.559-2.38-1.324-3.316-2.294-.936-.969-1.667-2.114-2.195-3.433s-.792-2.729-.792-4.228v-.06c0-1.479.264-2.879.792-4.198s1.259-2.474 2.195-3.463c.936-.99 2.052-1.77 3.346-2.339 1.294-.57 2.708-.855 4.242-.855.956 0 1.817.08 2.584.24.766.16 1.478.385 2.135.675.658.289 1.265.639 1.823 1.049.557.41 1.095.865 1.613 1.364l-1.613 1.74c-.897-.84-1.857-1.53-2.883-2.069-1.026-.54-2.255-.81-3.689-.81-1.155 0-2.226.22-3.211.66-.986.439-1.842 1.049-2.569 1.829-.727.779-1.295 1.694-1.703 2.744-.408 1.049-.612 2.174-.612 3.373v.06c0 1.219.204 2.354.612 3.403.408 1.05.976 1.965 1.703 2.744.727.78 1.583 1.394 2.569 1.844.985.45 2.056.675 3.211.675 1.434 0 2.668-.265 3.704-.795 1.035-.529 2.051-1.274 3.047-2.234l1.553 1.53c-.538.559-1.1 1.064-1.688 1.514-.587.45-1.219.835-1.896 1.154-.678.32-1.404.57-2.181.75s-1.643.27-2.599.27z"/><path d="m349.097 379.199c.836 0 1.603-.16 2.3-.48s1.295-.75 1.792-1.289c.498-.54.887-1.17 1.165-1.889.279-.72.419-1.49.419-2.309v-.06c0-.84-.145-1.625-.434-2.354-.288-.73-.692-1.37-1.209-1.919-.518-.55-1.125-.985-1.822-1.305s-1.454-.479-2.271-.479c-.836 0-1.603.159-2.3.479s-1.289.75-1.777 1.29c-.488.539-.871 1.174-1.15 1.904-.279.729-.418 1.504-.418 2.324v.06c0 .839.144 1.624.433 2.354.289.729.687 1.364 1.195 1.904.507.539 1.11.969 1.807 1.289s1.454.48 2.27.48zm-.06 2.069c-1.155 0-2.22-.215-3.196-.645s-1.822-1.009-2.539-1.739-1.275-1.579-1.673-2.549c-.398-.969-.597-2.004-.597-3.103v-.06c0-1.1.199-2.139.597-3.119.398-.979.956-1.839 1.673-2.579.717-.739 1.568-1.324 2.554-1.754s2.066-.645 3.241-.645c1.155 0 2.225.215 3.211.645s1.837 1.01 2.554 1.739c.717.73 1.275 1.58 1.673 2.549.398.97.597 2.004.597 3.104v.06c0 1.099-.204 2.139-.612 3.118-.408.98-.971 1.839-1.688 2.579s-1.573 1.324-2.569 1.754c-.995.43-2.071.645-3.226.645z"/><path d="m362.778 365.405h2.3v2.609c.259-.38.543-.75.852-1.109.308-.36.662-.675 1.06-.945s.846-.485 1.344-.645 1.076-.24 1.733-.24c1.254 0 2.29.295 3.106.885.817.59 1.434 1.324 1.852 2.204.279-.42.593-.82.941-1.199.349-.38.742-.71 1.18-.99s.931-.5 1.479-.66 1.16-.24 1.837-.24c1.792 0 3.196.555 4.212 1.665 1.016 1.109 1.523 2.633 1.523 4.573v9.595h-2.3v-9.056c0-1.499-.353-2.653-1.06-3.463s-1.688-1.215-2.942-1.215c-.578 0-1.126.105-1.643.315-.518.21-.971.52-1.36.93-.388.41-.697.914-.926 1.514s-.343 1.28-.343 2.039v8.936h-2.27v-9.116c0-1.459-.354-2.593-1.061-3.403s-1.678-1.215-2.912-1.215c-.618 0-1.185.12-1.703.36s-.971.58-1.359 1.02-.692.954-.911 1.544-.329 1.245-.329 1.964v8.846h-2.3z"/><path d="m400.476 379.169c.737 0 1.439-.135 2.106-.405s1.245-.66 1.732-1.169c.488-.51.877-1.135 1.165-1.874.289-.74.434-1.58.434-2.519v-.06c0-.92-.145-1.749-.434-2.489-.288-.74-.682-1.369-1.18-1.889-.497-.52-1.075-.92-1.732-1.2s-1.354-.42-2.091-.42c-.717 0-1.409.145-2.076.435s-1.265.7-1.792 1.23c-.528.529-.946 1.159-1.255 1.889s-.463 1.534-.463 2.414v.06c0 .899.154 1.719.463 2.459.309.739.727 1.369 1.255 1.889.527.519 1.125.924 1.792 1.214s1.359.435 2.076.435zm-7.797-13.764h2.301v3.119c.318-.46.672-.9 1.06-1.32.388-.419.821-.784 1.299-1.094s1.011-.56 1.599-.75c.587-.19 1.239-.285 1.956-.285.916 0 1.817.18 2.703.54.887.36 1.678.885 2.375 1.574.697.69 1.255 1.53 1.673 2.519.418.99.627 2.124.627 3.404v.06c0 1.259-.209 2.389-.627 3.388-.418 1-.971 1.844-1.658 2.534s-1.473 1.219-2.36 1.589c-.886.37-1.797.555-2.733.555-.717 0-1.374-.09-1.971-.27-.598-.18-1.135-.42-1.613-.72-.478-.299-.912-.649-1.3-1.049s-.732-.82-1.03-1.259v7.766h-2.301z"/><path d="m419.056 379.379c.717 0 1.384-.1 2.001-.3.618-.2 1.16-.485 1.628-.855.468-.369.837-.809 1.106-1.319.268-.51.403-1.075.403-1.694v-1.44c-.578-.159-1.235-.309-1.972-.449-.736-.14-1.583-.21-2.539-.21-1.434 0-2.544.285-3.33.854-.787.57-1.18 1.325-1.18 2.264v.06c0 .48.104.915.313 1.305.209.389.493.714.852.974.358.26.771.46 1.239.6s.961.21 1.479.21zm-.448 1.859c-.717 0-1.424-.1-2.121-.3s-1.314-.505-1.852-.914c-.538-.41-.971-.915-1.299-1.515-.329-.599-.493-1.299-.493-2.099v-.06c0-.839.159-1.574.478-2.204.318-.629.771-1.154 1.359-1.574.587-.42 1.284-.74 2.091-.96.806-.219 1.697-.329 2.673-.329.996 0 1.857.06 2.584.179.727.12 1.439.28 2.136.48v-.48c0-1.379-.398-2.423-1.195-3.133-.796-.71-1.922-1.065-3.375-1.065-.916 0-1.748.1-2.495.3-.746.2-1.478.47-2.195.81l-.687-1.889c.856-.4 1.722-.72 2.599-.96.876-.24 1.882-.36 3.017-.36 2.19 0 3.853.57 4.988 1.71 1.076 1.079 1.613 2.598 1.613 4.558v9.475h-2.27v-2.309c-.538.7-1.26 1.315-2.166 1.844-.906.53-2.036.795-3.39.795z"/><path d="m432.797 365.405h2.3v2.699c.518-.84 1.195-1.554 2.031-2.144.837-.59 1.922-.885 3.256-.885.936 0 1.768.15 2.494.45.727.3 1.345.725 1.852 1.275.508.549.897 1.204 1.165 1.964.269.759.404 1.599.404 2.519v9.625h-2.3v-9.056c0-1.439-.369-2.578-1.106-3.418-.736-.84-1.792-1.26-3.166-1.26-.657 0-1.27.115-1.837.345-.568.23-1.061.56-1.479.99s-.742.944-.971 1.544-.343 1.26-.343 1.979v8.876h-2.3z"/><path d="m455.081 385.796c-.637 0-1.215-.065-1.733-.195-.517-.13-1.035-.325-1.553-.585l.777-1.829c.378.2.751.345 1.12.435.368.09.801.135 1.299.135.697 0 1.285-.21 1.763-.63s.946-1.179 1.404-2.279l-7.02-15.443h2.539l5.616 12.924 4.958-12.924h2.45l-6.482 16.013c-.657 1.599-1.389 2.729-2.196 3.388-.806.66-1.787.99-2.942.99z"/></g></g></svg>