<!--?xml version="1.0" encoding="UTF-8" standalone="no"?--><svg width="100%" height="100%" viewBox="0 0 512 512" version="1.1" xmlns="http://www.w3.org/2000/svg" xmlns:xlink="http://www.w3.org/1999/xlink" xml:space="preserve" xmlns:serif="http://www.serif.com/" style="fill-rule: evenodd; clip-rule: evenodd; stroke-linejoin: round; stroke-miterlimit: 1.41421;"><g><path d="M190.935,204.84c0,46.791 -37.931,84.722 -84.722,84.722c-46.79,0 -84.722,-37.931 -84.722,-84.722c0,-46.79 37.932,-84.722 84.722,-84.722c46.791,0 84.722,37.932 84.722,84.722" style="fill:none;stroke:#9bcc52;stroke-width:1.5px;" class="bClZweWM_0"></path><path d="M339.994,204.84c0,46.791 -37.931,84.722 -84.722,84.722c-46.79,0 -84.722,-37.931 -84.722,-84.722c0,-46.79 37.932,-84.722 84.722,-84.722c46.791,0 84.722,37.932 84.722,84.722" style="fill:none;stroke:#9bcc52;stroke-width:1.5px;" class="bClZweWM_1"></path><path d="M180.743,245.158c6.499,-11.989 10.191,-25.722 10.191,-40.318c0,-14.596 -3.692,-28.329 -10.191,-40.318c-6.498,11.989 -10.191,25.722 -10.191,40.318c0,14.596 3.693,28.329 10.191,40.318" style="fill:none;stroke:#9bcc52;stroke-width:1.5px;" class="bClZweWM_2"></path><path d="M489.053,204.84c0,46.791 -37.932,84.722 -84.722,84.722c-46.791,0 -84.722,-37.931 -84.722,-84.722c0,-46.79 37.931,-84.722 84.722,-84.722c46.79,0 84.722,37.932 84.722,84.722" style="fill:none;stroke:#9bcc52;stroke-width:1.5px;" class="bClZweWM_3"></path><path d="M329.802,245.158c6.499,-11.989 10.191,-25.722 10.191,-40.318c0,-14.596 -3.692,-28.329 -10.191,-40.318c-6.498,11.989 -10.191,25.722 -10.191,40.318c0,14.596 3.693,28.329 10.191,40.318" style="fill:none;stroke:#9bcc52;stroke-width:1.5px;" class="bClZweWM_4"></path><path d="M127.726,242.799l0,-50.068l-21.584,32.757l-0.438,0l-21.364,-32.429l0,49.74l-16.545,0l0,-76.694l18.188,0l20.159,32.431l20.161,-32.431l18.188,0l0,76.694l-16.765,0Z" style="fill:none;stroke:#9bcc52;stroke-width:1.5px;" class="bClZweWM_5"></path><path d="M275.432,204.453c0,-13.586 -9.314,-23.12 -23.118,-23.12l-13.038,0l0,46.239l13.038,0c13.804,0 23.118,-9.313 23.118,-22.901l0,-0.218Zm-23.118,38.345l-29.911,0l0,-76.692l29.911,0c24.103,0 40.758,16.545 40.758,38.127l0,0.22c0,21.584 -16.655,38.345 -40.758,38.345" style="fill:none;stroke:#9bcc52;stroke-width:1.5px;" class="bClZweWM_6"></path><path d="M404.293,185.828l-10.189,24.871l20.378,0l-10.189,-24.871Zm23.228,56.971l-7.011,-17.201l-32.434,0l-7.011,17.201l-17.2,0l32.869,-77.24l15.556,0l32.871,77.24l-17.64,0Z" style="fill:none;stroke:#9bcc52;stroke-width:1.5px;" class="bClZweWM_7"></path></g><style data-made-with="vivus-instant">.bClZweWM_0{stroke-dasharray:533 535;stroke-dashoffset:534;animation:bClZweWM_draw 2120ms linear 0ms forwards;}.bClZweWM_1{stroke-dasharray:533 535;stroke-dashoffset:534;animation:bClZweWM_draw 2120ms linear 40ms forwards;}.bClZweWM_2{stroke-dasharray:169 171;stroke-dashoffset:170;animation:bClZweWM_draw 2120ms linear 80ms forwards;}.bClZweWM_3{stroke-dasharray:533 535;stroke-dashoffset:534;animation:bClZweWM_draw 2120ms linear 120ms forwards;}.bClZweWM_4{stroke-dasharray:169 171;stroke-dashoffset:170;animation:bClZweWM_draw 2120ms linear 160ms forwards;}.bClZweWM_5{stroke-dasharray:478 480;stroke-dashoffset:479;animation:bClZweWM_draw 2120ms linear 200ms forwards;}.bClZweWM_6{stroke-dasharray:408 410;stroke-dashoffset:409;animation:bClZweWM_draw 2120ms linear 240ms forwards;}.bClZweWM_7{stroke-dasharray:362 364;stroke-dashoffset:363;animation:bClZweWM_draw 2120ms linear 280ms forwards;}@keyframes bClZweWM_draw{100%{stroke-dashoffset:0;}}@keyframes bClZweWM_fade{0%{stroke-opacity:1;}93.93939393939394%{stroke-opacity:1;}100%{stroke-opacity:0;}}</style></svg>